<?xml version="1.0" encoding="UTF-8" standalone="no"?>
<!-- Created with Inkscape (http://www.inkscape.org/) -->

<svg
   xmlns:dc="http://purl.org/dc/elements/1.1/"
   xmlns:cc="http://creativecommons.org/ns#"
   xmlns:rdf="http://www.w3.org/1999/02/22-rdf-syntax-ns#"
   xmlns:svg="http://www.w3.org/2000/svg"
   xmlns="http://www.w3.org/2000/svg"
   xmlns:sodipodi="http://sodipodi.sourceforge.net/DTD/sodipodi-0.dtd"
   xmlns:inkscape="http://www.inkscape.org/namespaces/inkscape"
   width="172"
   height="55"
   viewBox="0 0 45.508332 14.552083"
   version="1.1"
   id="svg41"
   inkscape:version="0.92.3 (2405546, 2018-03-11)"
   sodipodi:docname="logo_napis.svg">
  <defs
     id="defs35" />
  <sodipodi:namedview
     id="base"
     pagecolor="#ffffff"
     bordercolor="#666666"
     borderopacity="1.0"
     inkscape:pageopacity="0.0"
     inkscape:pageshadow="2"
     inkscape:zoom="3.959798"
     inkscape:cx="69.838674"
     inkscape:cy="65.724207"
     inkscape:document-units="mm"
     inkscape:current-layer="layer1"
     showgrid="false"
     units="px"
     inkscape:window-width="1680"
     inkscape:window-height="987"
     inkscape:window-x="-8"
     inkscape:window-y="-8"
     inkscape:window-maximized="1" />
  <metadata
     id="metadata38">
    <rdf:RDF>
      <cc:Work
         rdf:about="">
        <dc:format>image/svg+xml</dc:format>
        <dc:type
           rdf:resource="http://purl.org/dc/dcmitype/StillImage" />
        <dc:title></dc:title>
      </cc:Work>
    </rdf:RDF>
  </metadata>
  <g
     inkscape:label="Vrstva 1"
     inkscape:groupmode="layer"
     id="layer1"
     transform="translate(0,-282.44787)">
    <g
       transform="matrix(0.03132161,0,0,0.03132161,-2.4276909,278.83192)"
       id="g16">
      <path
         inkscape:connector-curvature="0"
         d="m 136.511,513.794 c -1.176,-4.114 -1.176,-4.703 -1.176,-5.879 0,-1.763 0.979,-3.331 3.331,-4.115 l 37.623,-14.304 c 0.98,-0.393 1.96,-0.589 2.939,-0.589 2.352,0 4.703,1.568 6.074,4.507 6.271,13.521 18.813,21.947 40.76,21.947 20.184,0 30.766,-10.189 30.766,-24.103 0,-12.541 -9.015,-22.927 -41.936,-33.313 -53.692,-16.853 -76.422,-42.914 -76.422,-81.518 0,-35.468 33.705,-69.564 86.612,-69.564 41.543,0 72.112,18.812 83.478,50.753 1.176,4.115 1.176,4.703 1.176,5.879 0,1.764 -0.979,3.331 -3.331,4.115 l -35.664,12.933 c -0.98,0.393 -1.96,0.588 -2.939,0.588 -2.352,0 -4.703,-1.567 -6.074,-4.507 -5.879,-12.737 -18.616,-20.575 -35.664,-20.575 -19.008,0 -29.785,10.386 -29.785,23.318 0,12.542 10.189,20.771 42.326,31.745 52.124,17.636 76.03,43.895 76.03,78.186 0,47.029 -32.724,77.207 -88.767,77.207 -45.267,10e-4 -79.364,-19.79 -89.357,-52.711 z"
         id="path4" />
      <path
         inkscape:connector-curvature="0"
         d="m 368.32,562.587 c -4.115,0 -6.664,-2.548 -6.664,-6.663 V 317.447 c 0,-4.115 2.549,-6.662 6.664,-6.662 h 153.236 c 4.115,0 6.663,2.547 6.663,6.662 v 36.644 c 0,4.115 -2.548,6.662 -6.663,6.662 h -98.369 c -4.115,0 -6.664,2.548 -6.664,6.663 v 36.644 c 0,4.115 2.549,6.662 6.664,6.662 h 80.733 c 4.115,0 6.661,2.548 6.661,6.663 v 36.644 c 0,4.115 -2.546,6.663 -6.661,6.663 h -80.733 c -4.115,0 -6.664,2.547 -6.664,6.662 v 38.603 c 0,4.115 2.549,6.663 6.664,6.663 h 98.369 c 4.115,0 6.663,2.547 6.663,6.662 v 36.644 c 0,4.115 -2.548,6.663 -6.663,6.663 H 368.32 Z"
         id="path6" />
      <path
         inkscape:connector-curvature="0"
         d="m 568.58,513.794 c -1.176,-4.114 -1.176,-4.703 -1.176,-5.879 0,-1.763 0.979,-3.331 3.331,-4.115 l 37.624,-14.304 c 0.979,-0.393 1.959,-0.589 2.938,-0.589 2.352,0 4.702,1.568 6.074,4.507 6.271,13.521 18.812,21.947 40.759,21.947 20.184,0 30.766,-10.189 30.766,-24.103 0,-12.541 -9.015,-22.927 -41.935,-33.313 -53.692,-16.853 -76.423,-42.914 -76.423,-81.518 0,-35.468 33.705,-69.564 86.612,-69.564 41.542,0 72.112,18.812 83.478,50.753 1.176,4.115 1.176,4.703 1.176,5.879 0,1.764 -0.98,3.331 -3.332,4.115 l -35.664,12.933 c -0.979,0.393 -1.959,0.588 -2.939,0.588 -2.352,0 -4.702,-1.567 -6.074,-4.507 -5.878,-12.737 -18.615,-20.575 -35.664,-20.575 -19.008,0 -29.785,10.386 -29.785,23.318 0,12.542 10.189,20.771 42.326,31.745 52.125,17.636 76.031,43.895 76.031,78.186 0,47.029 -32.725,77.207 -88.768,77.207 -45.265,10e-4 -79.362,-19.79 -89.355,-52.711 z"
         id="path8" />
      <path
         inkscape:connector-curvature="0"
         d="M 837.228,555.924 V 367.416 c 0,-4.115 -2.547,-6.663 -6.662,-6.663 h -43.894 c -4.115,0 -6.663,-2.547 -6.663,-6.662 v -36.644 c 0,-4.115 2.548,-6.662 6.663,-6.662 h 155.98 c 4.115,0 6.662,2.547 6.662,6.662 v 36.644 c 0,4.115 -2.547,6.662 -6.662,6.662 h -43.895 c -4.115,0 -6.662,2.548 -6.662,6.663 v 188.509 c 0,4.115 -2.548,6.663 -6.663,6.663 H 843.89 c -4.115,-10e-4 -6.662,-2.548 -6.662,-6.664 z"
         id="path10" />
      <path
         inkscape:connector-curvature="0"
         d="M 998.297,555.924 V 315.487 c 0,-4.114 2.548,-6.662 6.663,-6.662 h 41.542 c 4.115,0 6.663,2.548 6.663,6.662 v 68.977 c 0,9.994 -1.176,20.38 -3.136,27.238 L 1129,311.373 c 1.371,-1.765 3.135,-2.548 5.29,-2.548 h 45.07 c 4.114,0 6.661,2.548 6.661,6.662 0,1.764 -0.587,3.724 -1.566,4.703 l -76.423,93.667 c -0.979,1.176 -1.177,1.567 -1.177,2.155 0,0.588 0.393,0.979 1.177,2.156 l 91.12,133.641 c 0.783,1.176 1.176,2.352 1.176,3.92 0,4.311 -2.549,6.858 -6.664,6.858 h -48.596 c -2.744,0 -5.291,-1.372 -7.055,-4.115 l -61.727,-97.39 c -0.588,-0.98 -1.959,-2.352 -3.527,-2.352 -0.979,0 -2.352,0.979 -3.135,1.96 l -16.46,20.575 v 74.658 c 0,4.115 -2.548,6.663 -6.663,6.663 h -41.542 c -4.114,10e-4 -6.662,-2.546 -6.662,-6.662 z"
         id="path12" />
      <path
         inkscape:connector-curvature="0"
         d="M 1237.551,495.766 V 315.487 c 0,-4.114 2.547,-6.662 6.662,-6.662 h 41.543 c 4.115,0 6.662,2.548 6.662,6.662 v 174.401 c 0,15.48 9.994,26.649 25.475,26.649 h 28.021 c 15.677,0 25.279,-11.953 25.475,-26.649 V 315.487 c 0,-4.114 2.547,-6.662 6.662,-6.662 h 41.543 c 4.115,0 6.662,2.548 6.662,6.662 v 180.279 c 0,42.522 -27.041,70.74 -80.342,70.74 h -28.021 c -55.259,0 -80.342,-26.649 -80.342,-70.74 z"
         id="path14" />
    </g>
    <g
       transform="matrix(0.03132161,0,0,0.03132161,-2.4276909,278.83192)"
       id="g24">
      <path
         inkscape:connector-curvature="0"
         d="m 1020.375,279.894 c -2.601,0 -4.207,-1.614 -4.207,-4.214 V 124.955 c 0,-2.602 1.606,-4.209 4.207,-4.209 h 58.587 c 33.93,0 50.778,18.699 50.778,48.545 v 3.845 c 0,25.015 -16.849,48.67 -50.906,48.67 h -23.777 c -2.601,0 -4.211,1.609 -4.211,4.215 v 49.66 c 0,2.6 -1.61,4.214 -4.211,4.214 h -26.26 z m 59.201,-89.547 c 9.788,0 17.344,-6.56 17.344,-17.091 v -3.591 c 0,-10.531 -7.556,-17.338 -17.344,-17.338 h -24.52 c -2.601,0 -4.211,1.608 -4.211,4.207 v 29.598 c 0,2.605 1.61,4.215 4.211,4.215 z"
         id="path18" />
      <path
         inkscape:connector-curvature="0"
         d="M 1158.226,275.68 V 124.955 c 0,-2.602 1.606,-4.209 4.208,-4.209 h 63.912 c 31.701,0 50.652,18.945 50.652,48.92 0,17.217 -6.687,30.094 -20.93,38.764 -1.239,0.742 -1.862,1.486 -1.862,2.477 0,0.991 0.25,1.735 0.623,2.721 l 24.273,59.083 c 1.109,2.604 1.606,4.211 1.606,5.204 0,0.989 -0.984,1.98 -2.969,1.98 h -29.97 c -0.993,0 -1.856,-0.621 -2.48,-1.98 l -24.151,-58.217 c -0.494,-1.234 -1.486,-1.729 -2.598,-1.729 h -21.426 c -2.604,0 -4.213,1.608 -4.213,4.207 v 53.506 c 0,2.6 -1.609,4.214 -4.214,4.214 h -26.255 c -2.6,-0.002 -4.206,-1.616 -4.206,-4.216 z m 85.825,-103.664 v -4.335 c 0,-8.788 -7.549,-15.354 -17.339,-15.354 h -29.597 c -2.604,0 -4.213,1.608 -4.213,4.207 v 26.758 c 0,2.597 1.608,4.205 4.213,4.205 h 29.597 c 9.541,10e-4 17.339,-6.686 17.339,-15.481 z"
         id="path20" />
      <path
         inkscape:connector-curvature="0"
         d="m 1357.496,282.369 c -34.924,0 -50.773,-16.717 -50.773,-44.713 v -74.677 c 0,-26.755 17.09,-44.711 50.773,-44.711 h 17.713 c 34.929,0 50.782,16.721 50.782,44.711 v 74.677 c 0,26.879 -17.093,44.713 -50.782,44.713 z m 33.818,-48.431 v -67.245 c 0,-9.784 -6.318,-16.843 -16.105,-16.843 h -17.713 c -9.901,0 -16.098,7.676 -16.098,16.843 v 67.245 c 0,9.788 6.316,16.85 16.098,16.85 h 17.713 c 9.907,0 16.105,-7.557 16.105,-16.85 z"
         id="path22" />
    </g>
    <path
       inkscape:connector-curvature="0"
       d="m 1.8560515,284.33776 c -0.044324,0.0602 -0.076424,0.14981 0.00672,0.27376 0.8169941,1.21108 2.3368018,2.73249 2.3368018,2.73249 0,0 0.040026,0.0598 0.1249124,0.0781 0.084887,0.0185 0.1552405,-0.0194 0.1552405,-0.0194 l 7.9657418,-4.2822 c 0,0 0.198544,-0.12089 0.09953,-0.29687 -0.09899,-0.17597 -0.283593,-0.0999 -0.283593,-0.0999 l -7.8301113,2.85135 c 0,0 -0.057622,0.0251 -0.1149727,0.0143 -0.057352,-0.0104 -0.083006,-0.029 -0.083006,-0.029 0,0 -1.1722423,-0.69368 -2.094727,-1.27563 -0.1144357,-0.0721 -0.2388512,-0.007 -0.2831079,0.0531 z"
       id="path26"
       style="stroke-width:0.03132161" />
  </g>
</svg>
